<?xml version="1.0" standalone="no"?>
<!DOCTYPE svg PUBLIC "-//W3C//DTD SVG 20010904//EN"
 "http://www.w3.org/TR/2001/REC-SVG-20010904/DTD/svg10.dtd">
<svg version="1.0" xmlns="http://www.w3.org/2000/svg"
 width="500.000000pt" height="500.000000pt" viewBox="0 0 500.000000 500.000000"
 preserveAspectRatio="xMidYMid meet">

<g transform="translate(0.000000,500.000000) scale(0.100000,-0.100000)"
fill="#000000" stroke="none">
<path d="M2680 2751 c0 -28 -1 -29 -39 -24 -34 5 -41 2 -56 -21 -21 -31 -13
-91 13 -105 10 -5 39 -9 65 -9 l47 1 0 94 c0 76 -3 93 -15 93 -10 0 -15 -10
-15 -29z m-16 -57 c9 -8 16 -24 16 -34 0 -19 -25 -50 -40 -50 -15 0 -40 31
-40 50 0 19 25 50 40 50 5 0 16 -7 24 -16z"/>
<path d="M2900 2685 c0 -78 3 -95 15 -95 11 0 15 11 15 40 l0 40 45 0 c33 0
45 4 45 15 0 11 -12 15 -45 15 -41 0 -45 2 -45 24 0 22 5 25 47 28 26 2 48 9
51 16 3 9 -14 12 -62 12 l-66 0 0 -95z"/>
<path d="M2270 2710 c-41 -41 -10 -120 46 -120 33 0 64 17 64 35 0 19 -5 19
-34 0 -13 -9 -31 -13 -40 -9 -22 8 -30 47 -16 73 12 24 31 27 60 9 24 -15 37
-4 20 17 -18 22 -76 19 -100 -5z"/>
<path d="M2427 2712 c-23 -25 -22 -85 2 -106 28 -25 79 -17 104 16 22 29 18
65 -9 92 -21 22 -77 20 -97 -2z m77 -18 c21 -21 20 -47 -3 -68 -27 -24 -61 -6
-61 32 0 48 34 67 64 36z"/>
<path d="M2750 2710 c-41 -41 -10 -120 46 -120 33 0 64 17 64 35 0 19 -5 19
-36 -2 -24 -15 -26 -15 -47 5 l-21 22 57 0 c50 0 57 2 57 20 0 29 -36 60 -70
60 -17 0 -39 -9 -50 -20z m80 -15 c11 -13 7 -15 -24 -15 -34 0 -44 8 -29 23
11 12 40 8 53 -8z"/>
<path d="M3067 2712 c-23 -25 -22 -85 2 -106 28 -25 79 -17 104 16 22 29 18
65 -9 92 -21 22 -77 20 -97 -2z m77 -18 c21 -21 20 -47 -3 -68 -27 -24 -61 -6
-61 32 0 48 34 67 64 36z"/>
<path d="M3220 2659 c0 -55 3 -69 15 -69 11 0 15 12 15 51 0 42 3 52 20 56 34
9 23 31 -15 31 l-35 0 0 -69z"/>
<path d="M3326 2712 c-21 -24 -21 -71 0 -101 14 -19 23 -22 51 -18 28 5 34 3
31 -11 -4 -22 -34 -27 -64 -11 -30 15 -40 7 -19 -15 21 -20 79 -21 99 0 12 11
16 36 16 93 l0 78 -49 1 c-35 1 -53 -3 -65 -16z m73 -16 c7 -8 11 -27 9 -43
-3 -24 -8 -28 -33 -28 -25 0 -30 4 -33 28 -4 30 12 57 33 57 7 0 18 -6 24 -14z"/>
<path d="M3486 2708 c-36 -51 -5 -118 53 -118 29 0 61 22 61 41 0 13 -12 11
-34 -6 -25 -19 -31 -19 -52 3 -17 16 -15 17 37 22 61 6 72 22 39 58 -28 30
-83 30 -104 0z m84 -13 c11 -13 7 -15 -30 -15 -37 0 -41 2 -30 15 7 8 20 15
30 15 10 0 23 -7 30 -15z"/>
</g>
</svg>
